<svg width="1440" height="892" viewBox="0 0 1440 892" fill="none" xmlns="http://www.w3.org/2000/svg">
<path d="M-66.5922 431.467C-148.556 458.018 -149.681 106.745 -297.819 232.085C-307.531 240.303 -300.881 234.45 -300.881 234.45C-300.881 234.45 -504.574 412.673 -516.837 450.434C-518.882 456.73 -501.007 682.788 -499.737 688.007C-492.843 716.328 -183.543 889.604 -171.289 891.971C-159.036 894.337 -87.6709 752.21 -46.7421 698.12C-5.81329 644.029 62.9775 466.32 123.493 472.81C184.008 479.3 218.479 537.712 274.398 532.992C330.317 528.272 319.594 391.387 366.321 383.717C413.048 376.047 555.488 519.674 563.188 525.33C579.427 537.259 637.491 594.952 619.107 513.521C600.722 432.09 683.619 556.952 730.179 574.883C742.435 579.604 730.179 529.742 730.179 520.012C730.179 497.591 851.21 600.254 851.21 574.883C851.21 549.513 829.763 505.778 833.591 488.74C838.629 466.32 973.006 630.935 1013.61 612.645C1054.2 594.354 1013.61 534.172 1050.37 526.502C1087.14 518.832 1284.36 629.755 1284.36 574.883C1284.36 520.012 1144.7 361.89 1284.36 406.142C1424.02 450.393 1633.74 506.033 1790.69 552.731C1918.89 590.874 1716.27 345.967 1622.59 268.667C1587.69 239.877 1222.31 -94.848 1316.74 26.3351C1351.21 70.5755 1380.56 107.213 1415.77 158.6C1463.4 228.098 1552.88 340.059 1483.94 360.71C1414.99 381.361 1186.72 253.916 1115.48 272.797C1044.24 291.677 1172.17 459.243 1139.99 478.124C1107.82 497.005 989.089 407.912 952.321 415.582C915.552 423.252 989.089 526.506 952.321 530.046C915.552 533.586 767.71 375.46 767.71 415.582C767.71 460.283 786.861 475.764 786.861 500.545C786.861 525.326 702.599 423.252 702.599 466.914C702.599 496.868 704.897 517.655 678.087 491.104C646.128 459.455 553.992 330.619 572.376 406.142C590.761 481.664 563.95 475.776 518.755 450.393C461.897 418.46 383.936 322.948 337.209 330.619C290.482 338.289 292.78 423.252 262.139 423.252C231.499 423.252 154.131 297.578 89.0197 294.627C23.9083 291.677 15.3716 404.916 -66.5922 431.467Z" fill="#FF4E8D"/>
</svg>
