<svg width="80" height="77" viewBox="0 0 80 77" fill="none" xmlns="http://www.w3.org/2000/svg">
<path d="M39.6436 0.520508C40.1765 0.596925 40.6348 0.721902 41.1201 0.949219C41.5641 1.15718 42.0446 1.57874 42.5508 2.22168C43.0528 2.85938 43.5553 3.68304 44.0537 4.65039C45.0506 6.58549 46.0043 9.0457 46.8887 11.625C47.772 14.2014 48.5807 16.8799 49.29 19.249C49.9967 21.6091 50.6097 23.679 51.0967 25.0098L51.1826 25.2422L51.4199 25.3154C55.4932 26.5683 59.705 26.4587 63.7803 26.2822C67.8859 26.1045 71.8368 25.8613 75.5342 26.7666C76.2732 26.9476 77.0691 27.2208 77.7568 27.6201C78.3593 27.97 78.8559 28.4034 79.1709 28.9365L79.2949 29.1709C79.8207 30.2978 79.3221 31.6783 77.8691 33.3486C76.444 34.9869 74.2531 36.7223 71.8535 38.4619C69.4885 40.1765 66.8681 41.9308 64.7393 43.5127C63.6639 44.3118 62.6855 45.0865 61.8867 45.8223C61.0937 46.5528 60.4493 47.2701 60.0693 47.957C59.2352 49.4652 59.4327 51.57 60.0176 53.8281C60.6103 56.1165 61.6478 58.7245 62.6738 61.332C63.7064 63.9561 64.7297 66.5854 65.3291 68.9668C65.8949 71.2151 66.0572 73.1498 65.5674 74.6162L65.4609 74.9033C65.1492 75.6611 64.6919 76.2027 63.9941 76.4053C63.4918 76.5511 62.8465 76.5296 62.0557 76.3301C61.2689 76.1315 60.376 75.7668 59.4014 75.2695C57.451 74.2745 55.237 72.7841 52.9844 71.1641C51.8601 70.3555 50.7313 69.5185 49.625 68.6982C48.5198 67.8789 47.4356 67.0757 46.4072 66.3398C44.3643 64.878 42.4915 63.6449 41.0615 63.0742H41.0596L40.4434 62.8301L40.3037 62.7754L40.1572 62.8066C38.2903 63.198 36.2753 64.3272 34.2441 65.7354C32.2061 67.1483 30.0947 68.883 28.0469 70.5254C25.988 72.1767 23.9941 73.734 22.1543 74.8301C20.2966 75.9368 18.6957 76.5107 17.4014 76.3369C16.448 76.2087 15.7123 75.9051 15.2324 75.1787V75.1777C14.9853 74.8038 14.8249 74.2065 14.7783 73.3721C14.7324 72.5478 14.8 71.5466 14.96 70.4131C15.2798 68.1466 15.9588 65.4133 16.7666 62.624C17.5734 59.8381 18.5037 57.0129 19.3203 54.5635C20.1337 52.1237 20.8412 50.0378 21.1914 48.7588L21.2646 48.4912L21.0762 48.2871C19.8424 46.9554 18.1025 45.5607 16.1719 44.1475C14.2403 42.7336 12.0824 41.2767 10.0186 39.834C7.94655 38.3856 5.962 36.9475 4.34082 35.5518C2.70985 34.1476 1.4946 32.8258 0.910156 31.6201C0.51238 30.7997 0.343577 29.9356 0.681641 29.2314C1.2217 28.108 2.67241 27.3561 4.89746 26.9033C7.08552 26.4581 9.84663 26.3359 12.75 26.3145C15.6211 26.2932 18.6783 26.3715 21.3232 26.3184C23.9673 26.2652 26.3435 26.0808 27.9111 25.4961C28.0397 25.4482 28.1832 25.3912 28.2959 25.3477L28.4717 25.2793L28.5596 25.1123C30.2485 21.8701 31.4295 17.328 32.6592 13.0693C33.2782 10.9256 33.9108 8.84501 34.6299 6.99902C35.3504 5.14928 36.1466 3.56519 37.0791 2.39941C37.7004 1.62264 38.665 1.09373 39.6436 0.520508Z" fill="#CA3035" stroke="black"/>
</svg>
