<svg viewBox="0 265 1285 160" fill="none" xmlns="http://www.w3.org/2000/svg" aria-hidden="true">
<path d="M168.845 314.452C159.879 320.603 150.154 320.689 139.044 327.895C127.966 335.122 127.551 338.258 114.318 345.539C101.092 352.839 89.2613 362.169 82.942 364.895C76.6724 367.592 77.7107 370.594 69.3085 375.055C61.9054 378.962 56.8771 382.533 52.0692 386.295C51.367 386.754 50.5445 387.309 49.8219 387.829C43.1425 392.739 20.7404 406.8 11.8969 405.174C3.4588 405.892 3.85385 393.978 4.83282 387.931C5.19559 385.911 5.39883 384.531 5.57263 383.24C5.64243 382.709 5.53189 382.407 5.34375 382.346C5.34363 382.346 5.34351 382.346 5.34338 382.346C5.11008 382.268 4.75592 382.564 4.52051 383.202C3.46378 386.182 1.56744 390.613 0.337463 396.423C-0.76059 401.879 0.818634 406.705 5.08627 408.879C9.28604 410.869 13.8796 410.316 20.9993 408.551C34.5764 404.684 42.8 400.985 55.5151 393.133C55.7996 392.971 56.0326 392.818 56.3402 392.62C56.4911 392.522 56.6589 392.412 56.8343 392.296C56.9292 392.229 57.0286 392.158 57.1329 392.084C70.7699 382.316 76.2355 384.192 94.7592 369.635C113.227 355.194 117.932 357.981 138.156 346.754C158.437 335.49 182.742 319.007 195.252 312.882C207.741 306.731 224.651 298.762 242.612 291.475C250.415 288.395 260.552 285.277 267.851 286.058C273.22 282.507 266.854 297.863 261.717 307.816C252.342 326.818 236.254 357.814 244.641 374.115C248.044 381.424 252.601 384.203 256.328 386.543C260.489 388.936 264.37 390.712 271.238 392.738C278.865 395.028 290.48 395.739 299.514 394.566C304.411 393.974 303.221 393.116 298.439 392.629C291.826 391.902 285.942 391.787 282.878 390.3C276.183 387.148 273.743 386.065 265.665 384.568C257.48 382.63 256.467 377.616 254.083 374.916C252.924 373.437 251.893 372.839 250.738 369.912C249.719 366.997 248.54 361.051 253.229 349.4C263.576 326.491 272.918 314.783 277.482 305.399C278.981 302.464 281.029 298.415 282.366 292.499C282.857 289.627 283.819 285.543 281.182 280.463C277.995 275.083 272.962 274.084 269.246 273.672C261.047 273.11 254.247 275.169 248.277 276.592C231.426 280.579 201.594 295.662 189.278 301.166C176.95 306.61 177.829 308.342 168.845 314.452Z" fill="currentColor"/>
<path d="M456.377 353.01C456.568 345.645 458.796 340.255 460.006 331.771C460.016 330.075 459.925 328.378 458.6 326.155C457.18 323.786 454.441 322.416 452.536 322.074C450.313 321.671 449.149 321.808 447.773 321.961C446.327 322.17 445.429 322.386 444.378 322.682C440.266 323.914 437.101 325.585 433.702 327.778C419.566 337.541 419.42 341.08 404.078 351.878C388.905 362.778 375.201 375.463 367.987 379.444C360.736 383.44 361.885 386.542 351.794 392.342C347.237 394.869 343.391 396.981 339.997 398.515C339.575 398.704 339.178 398.875 338.805 399.028C338.401 399.194 337.945 399.365 337.571 399.494C337.187 399.627 336.854 399.732 336.542 399.817C336.163 399.915 335.857 399.973 335.637 400.008C335.428 400.045 335.251 400.051 335.221 400.079C335.184 400.106 335.27 400.188 335.311 400.296C335.407 400.544 335.092 400.441 334.964 399.64C334.871 398.972 334.787 398.27 334.715 397.529C332.975 387.962 339.916 357.131 343.923 346.366C347.879 335.551 348.699 322.168 348.162 314.25C348.025 311.774 347.604 309.877 347.083 308.464C346.863 307.874 346.594 307.675 346.404 307.731C346.404 307.731 346.404 307.731 346.404 307.731C346.165 307.807 346.042 308.261 346.154 309.025C346.721 312.7 346.033 318.488 344.048 324.978C340.164 337.075 341.427 338.707 336.44 355.294C331.959 371.099 326.844 380.661 327.375 400.24C327.542 401.974 327.682 403.36 329.253 405.388C331.146 407.692 334.196 407.972 335.586 407.871C337.39 407.773 338.632 407.425 339.884 407.065C341.248 406.65 342.134 406.32 343.203 405.908C343.723 405.705 344.245 405.494 344.768 405.275C345.217 405.091 345.667 404.902 346.119 404.709C349.938 403.042 353.037 401.598 356.387 399.876C363.089 396.389 370.487 391.803 381.297 382.07C402.899 362.554 407.958 363.94 431.273 347.958C435.283 345.297 439.661 342.363 443.829 339.954C445.761 338.832 448.043 337.656 449.487 337.159C449.772 337.052 450.136 336.958 450.165 336.943C450.184 336.932 450.168 336.93 450.031 336.922C449.883 336.912 449.607 336.888 449.215 336.778C448.529 336.653 446.932 335.681 446.36 334.544C445.818 333.572 445.849 332.991 445.856 332.891C445.224 350.053 442.744 370.594 443.598 382.562C443.754 384.712 443.894 387.047 444.903 390.044C445.529 391.576 446.096 393.523 448.967 395.516C452.034 397.59 456.15 396.755 458.025 395.752C473.575 388.132 486.988 374.703 499.952 360.348C516.612 341.947 536.877 318.342 554.867 299.906C557.331 297.528 559.816 295.314 562.166 293.977C562.68 293.68 563.23 293.458 563.41 293.392C563.664 293.306 563.453 293.352 563.095 293.15C562.931 293.059 562.787 292.918 562.755 292.853C562.72 292.789 562.752 292.776 562.827 292.868C563.004 293.109 563.19 293.469 563.386 294.155C564.771 299.841 563.804 308.276 562.799 315.883C560.764 330.533 560.111 343.997 562.809 352.758C564.127 357.21 566.838 361.042 570.542 362.236C574.2 363.421 577.315 362.567 580.015 361.677C585.451 359.675 590.134 356.825 597.175 351.73C605.283 345.862 614.841 336.051 622.294 327.34C626.131 323.059 624.623 323.186 620.026 326.889C613.453 332.306 608.72 337.419 604.792 339.517C596.925 343.626 593.862 345.55 585.948 352.303C581.948 355.566 578.239 356.6 575.876 356.371C574.664 356.269 573.929 355.86 573.502 355.49C573.067 355.105 572.83 354.799 572.305 354.306C571.067 351.62 565.144 352.362 570.889 321.286C571.169 319.92 571.463 318.537 571.77 317.141C573.422 309.399 574.597 302.932 574.551 296.147C574.277 292.658 574.716 289.266 570.886 284.663C568.784 282.363 565.227 281.504 562.774 281.819C560.413 282.05 558.585 282.818 557.218 283.446C546.619 289.317 542.568 294.629 537.904 298.902C528.695 307.857 513.14 328.513 499.367 343.056C488.507 354.433 468.365 376.979 452.846 384.088C452.897 384.062 453.179 383.87 454 383.835C454.754 383.775 455.944 384.181 456.439 384.593C457.007 385.028 457.096 385.249 457.141 385.279C457.174 385.314 457.116 385.164 457.071 384.971C456.839 384.097 456.691 382.442 456.689 381.135C457.336 366.575 456.139 365.932 456.377 353.01Z" fill="currentColor"/>
<path d="M779.268 353.42C771.02 365.317 760.35 371.368 750.092 385.614C746.416 390.709 744.132 394.383 742.09 397.642C741.13 399.145 740.469 400.215 739.568 401.357C739.36 401.621 739.21 401.824 738.99 402.073C738.766 402.324 738.571 402.531 738.414 402.695C738.335 402.777 738.27 402.846 738.208 402.909C738.13 402.981 738.073 403.035 738.043 403.073C737.992 403.148 737.987 403.16 738.274 403.14C738.411 403.134 738.609 403.133 738.843 403.164C739.091 403.193 739.416 403.272 739.694 403.395C740.285 403.651 740.587 404.007 740.659 404.134C740.721 404.253 740.621 404.177 740.503 403.954C740.393 403.762 740.238 403.39 740.108 402.987C739.558 401.293 739.2 398.71 738.99 395.644C738.267 385.902 738.086 375.524 734.096 365.878C732.363 361.24 727.096 355.752 721.5 355.618C716.24 355.304 713.058 356.891 710.529 357.721C709.37 358.139 708.326 358.637 707.375 359.178C701.459 362.809 700.654 365.638 692.172 373.624C682.689 383.048 680.003 390.867 672.815 397.456C672.101 398.068 671.201 398.734 670.085 399.359C668.953 399.948 668.415 400.145 667.392 399.528C666.341 398.866 665.184 397.01 664.389 395.025C662.711 390.846 661.807 385.732 661.209 380.685C660.054 370.528 660.215 360.509 660.801 354.95C662.114 342.646 660.758 328.523 660.889 319.968C660.928 317.284 660.875 315.269 660.791 313.628C660.781 313.197 660.717 313.08 660.65 312.861C660.587 312.593 660.482 312.653 660.385 312.631C660.385 312.631 660.384 312.631 660.384 312.631C660.323 312.627 660.263 312.612 660.202 312.643C660.171 312.659 660.14 312.689 660.108 312.747C660.076 312.804 660.041 312.913 660.015 312.931C659.96 313.011 659.909 313.126 659.862 313.301C659.816 313.471 659.772 313.743 659.75 313.9C659.239 318.092 658.367 324.35 657.071 331.814C654.791 345.681 656.335 347.265 655.74 366.195C655.612 374.24 655.53 380.915 656.27 387.88C656.681 391.354 657.191 394.819 658.714 398.74C659.581 400.76 660.47 402.84 662.995 404.983C665.429 407.304 670.517 407.534 673.172 405.959C676.411 404.405 679.396 402 681.898 399.165C694.161 383.585 697.757 379.074 713.064 368.842C715.85 367.056 719.207 365.455 721.199 365.601C724.312 365.384 726.867 372.465 727.394 376.829C728.121 381.625 728.055 385.856 727.93 390.115C727.85 394.447 727.353 398.587 728.107 404.701C728.39 406.329 728.583 407.977 729.925 410.575C730.573 411.752 731.779 413.584 734.152 414.885C735.35 415.548 736.892 415.975 738.221 416.047C739.482 416.13 740.697 415.969 741.785 415.672C748.624 413.185 750.271 410.177 753.394 406.912C753.577 406.7 753.765 406.48 753.958 406.253C773.968 381.84 795.693 349.649 808.353 335.965C814.029 329.69 820.714 322.552 828.331 315.462C832.086 311.994 836.214 308.395 840.382 305.596C842.526 304.161 844.645 303.024 846.177 302.614C846.49 302.526 846.821 302.478 846.924 302.472C847.046 302.461 846.993 302.473 846.823 302.403C846.658 302.342 846.426 302.178 846.351 302.081C846.277 301.994 846.323 301.99 846.437 302.19C847.184 303.595 847.749 305.194 848.134 306.98C852.009 330.033 830.762 358.165 824.815 389.734C824.607 392.848 824.123 396.675 826.719 401.383C829.666 406.481 835.645 407.545 839.194 407.35C871.027 399.067 888.232 373.106 900.043 362.452C913.086 348.291 916.119 344.743 929.166 331.648C936.624 324.107 946.186 312.983 953.292 302.795C956.885 297.621 955.233 298.233 950.879 302.658C944.446 309.175 939.804 314.978 935.81 317.786C927.925 323.256 924.619 325.655 917.458 335.104C910.236 344.559 904.237 346.497 899.619 351.57C894.832 356.4 896.758 358.573 869.464 380.047C857.436 389.062 845.562 396.046 839.194 395.85C834.742 398.431 838.109 386.511 840.426 380.674C844.487 368.64 856.343 343.218 860.4 319.894C861.222 313.985 862.187 305.604 857.854 296.472C857.266 295.288 856.503 294.145 855.524 293.133C854.457 292.019 853.049 291.048 851.569 290.458C848.512 289.244 845.718 289.493 843.489 289.976C839.088 291.052 836.331 292.781 833.347 294.676C827.818 298.346 823.127 302.554 818.822 306.577C810.284 314.647 803.23 322.4 798.547 327.201C786.073 340.236 787.587 341.563 779.268 353.42Z" fill="currentColor"/>
<path d="M1157.95 378.352C1159.72 374.453 1163.83 371.933 1166.86 371.049C1170.15 370.022 1172.94 369.696 1175.78 369.491C1181.46 369.16 1187.16 369.668 1193.27 372.047C1205.29 376.995 1205.95 380.104 1219.3 385.334C1232.58 390.68 1244.65 398.277 1250.82 399.86C1256.92 401.41 1256.31 404.652 1264.78 407.172C1268.28 408.153 1271.41 409.046 1273.87 409.579C1274.54 409.722 1275.1 409.826 1275.6 409.903C1276.21 409.987 1276.64 410.016 1276.92 410.029C1277.24 410.045 1277.19 410.009 1276.91 410.367C1276.62 410.746 1276.72 411.167 1276.82 410.886C1276.94 410.035 1277.01 409.16 1277.01 408.216C1278.5 400.926 1262.78 381.328 1258.17 373.612C1252.69 366.036 1252.31 354.922 1252.52 348.934C1252.53 347.009 1252.71 345.54 1252.93 344.385C1253.02 343.896 1253.22 343.669 1253.42 343.669C1253.42 343.669 1253.42 343.669 1253.42 343.669C1253.66 343.67 1253.9 344.019 1253.94 344.633C1254.13 347.559 1254.8 352.025 1256.77 356.821C1260.8 365.449 1259.23 367.162 1266.58 377.895C1273.42 388.365 1283.49 392.157 1284.51 410.886C1284.49 411.548 1284.4 412.236 1284.19 412.929C1283.78 415.06 1281.03 417.263 1279.63 417.502C1277.85 418.022 1276.84 417.966 1275.67 417.956C1273.57 417.881 1271.77 417.558 1270.32 417.333C1267.08 416.768 1264.45 416.26 1261.63 415.593C1255.94 414.208 1249.66 412.082 1240.12 406.281C1221.17 394.755 1217.03 397.738 1196.99 390.262C1190.53 387.971 1183.58 385.324 1177.1 383.82C1174.01 383.078 1170.74 382.801 1169.43 383.068C1169.12 383.112 1168.96 383.16 1168.94 383.123C1168.91 383.095 1168.96 382.974 1168.94 382.925C1168.89 382.802 1168.57 383.235 1168.49 384.28C1168.12 391.55 1168.14 398.193 1167.54 403.667C1167.02 406.881 1166.9 411.387 1162.21 415.971C1156.95 420.484 1150.92 419.622 1146.87 418.838C1138.45 416.898 1131.47 413.166 1124.22 409.039C1122.19 407.86 1119.78 406.371 1117.78 405.068C1101.76 394.588 1081.8 382.755 1065.23 370.326C1048.71 357.802 1025.02 340.781 1013.71 333.437C1002.5 326.231 999.464 323.934 987.408 320.575C984.128 319.824 979.107 318.976 977.788 321.217C976.155 323.906 977.394 329.248 978.228 333.189C979.369 337.639 978.082 336.976 976.08 332.921C973.444 327.087 971.996 320.483 976.459 316.462C984.959 311.272 988.818 313.255 996.517 317.224C1003.99 321.766 1008.83 321.228 1013.05 323.845C1017.28 326.659 1016.53 327.665 1038.49 339.807C1060.3 352.132 1071.72 359.637 1079.74 364.594C1087.74 369.568 1103.23 381.895 1116.28 389.56C1120.22 391.872 1125.11 394.87 1130.47 397.821C1136.96 401.368 1144.44 405.162 1150.2 406.267C1151.56 406.527 1152.78 406.537 1153.31 406.405C1153.59 406.345 1153.68 406.276 1153.69 406.254C1153.7 406.228 1153.65 406.246 1153.68 406.183C1153.88 406.005 1154.47 403.811 1154.48 402.094C1154.46 392.986 1155.2 390.67 1156.32 384.28C1156.55 382.438 1156.77 380.911 1157.95 378.352Z" fill="currentColor"/>
</svg>